<svg xmlns="http://www.w3.org/2000/svg" width="100" height="24" fill="none"><path fill="#000" d="M40.948 7.047V17h-1.886l-4.232-6.904V17h-1.88V7.047h1.88l4.245 6.911V7.047h1.873Zm5.852 8.38v-3.41a1.5 1.5 0 0 0-.13-.65.938.938 0 0 0-.397-.424c-.177-.1-.403-.15-.676-.15-.242 0-.454.041-.636.123a.938.938 0 0 0-.41.349.901.901 0 0 0-.144.505h-1.811c0-.305.073-.594.219-.868a2.32 2.32 0 0 1 .622-.738c.273-.219.599-.39.977-.513a4.188 4.188 0 0 1 1.285-.184c.56 0 1.06.095 1.497.287.442.187.789.47 1.04.848.255.378.382.854.382 1.428v3.227c0 .369.023.686.069.95.05.26.123.485.218.677V17h-1.839a2.721 2.721 0 0 1-.198-.71 5.571 5.571 0 0 1-.068-.862Zm.253-2.932.013 1.073h-1.141c-.283 0-.531.03-.745.09-.215.054-.39.136-.527.245a.998.998 0 0 0-.307.383 1.162 1.162 0 0 0-.103.5c0 .181.041.346.123.491a.94.94 0 0 0 .37.349c.163.082.355.123.574.123.319 0 .597-.064.834-.191.236-.133.421-.292.553-.479.132-.187.203-.365.212-.533l.52.78c-.064.186-.16.384-.287.594-.128.21-.292.406-.493.588-.2.182-.442.332-.724.451a2.53 2.53 0 0 1-.985.178c-.478 0-.907-.096-1.285-.287a2.277 2.277 0 0 1-.895-.787 2.019 2.019 0 0 1-.328-1.134c0-.392.073-.739.218-1.04.146-.3.363-.553.65-.758.287-.21.642-.367 1.066-.472.429-.11.919-.164 1.47-.164h1.217Zm.137-5.933 1.073.075c0 .332-.069.633-.205.902a1.619 1.619 0 0 1-.54.629c-.228.155-.49.232-.787.232a1.63 1.63 0 0 1-.567-.088 2.522 2.522 0 0 1-.43-.212 2.767 2.767 0 0 0-.397-.212 1.12 1.12 0 0 0-.479-.096.568.568 0 0 0-.423.185c-.114.123-.171.289-.171.499l-1.08-.055c0-.328.066-.627.198-.896.132-.268.312-.483.54-.642.232-.16.497-.24.793-.24.187 0 .355.03.506.09.155.059.303.13.444.211.141.078.285.148.43.212.151.06.313.09.486.09a.576.576 0 0 0 .43-.185c.12-.123.178-.29.178-.5Zm2.734 6.815v-.144c0-.542.077-1.04.232-1.497.155-.46.38-.859.677-1.196.296-.337.659-.6 1.087-.786.428-.191.916-.287 1.463-.287.556 0 1.048.095 1.476.287.433.187.798.449 1.094.786.296.337.522.736.677 1.196.155.456.232.955.232 1.497v.144c0 .538-.077 1.037-.232 1.497a3.55 3.55 0 0 1-.677 1.196c-.296.338-.658.6-1.087.786-.428.187-.918.28-1.47.28a3.674 3.674 0 0 1-1.47-.28 3.03 3.03 0 0 1-1.093-.786 3.55 3.55 0 0 1-.677-1.196 4.666 4.666 0 0 1-.232-1.497Zm1.804-.144v.144c0 .323.032.627.096.91.064.282.162.53.294.744.132.214.303.383.513.506.214.119.47.178.766.178.291 0 .542-.06.751-.178.21-.123.381-.292.513-.506a2.32 2.32 0 0 0 .3-.745c.065-.282.097-.585.097-.909v-.144c0-.319-.032-.617-.096-.895a2.322 2.322 0 0 0-.3-.745 1.434 1.434 0 0 0-1.28-.704 1.418 1.418 0 0 0-1.264.704c-.132.214-.23.462-.294.745a3.997 3.997 0 0 0-.096.895Zm14.636-3.63h1.64v7.171c0 .67-.145 1.238-.437 1.703-.287.469-.69.824-1.21 1.066-.52.246-1.123.37-1.811.37-.296 0-.618-.042-.964-.124a3.903 3.903 0 0 1-.991-.39 2.454 2.454 0 0 1-.786-.676l.813-1.067a2.5 2.5 0 0 0 .834.65c.31.15.645.225 1.005.225.365 0 .675-.068.93-.205.26-.132.458-.328.594-.588.142-.255.212-.57.212-.943v-5.503l.171-1.688Zm-4.997 3.788v-.144c0-.565.069-1.078.205-1.538a3.62 3.62 0 0 1 .588-1.196c.26-.333.572-.59.937-.773.369-.182.783-.273 1.244-.273.488 0 .898.089 1.23.266.338.178.615.431.834.76.224.327.397.717.52 1.168.127.447.225.939.294 1.477v.39a7.741 7.741 0 0 1-.308 1.442c-.137.437-.319.82-.547 1.148a2.39 2.39 0 0 1-.847.752c-.338.178-.734.267-1.19.267-.456 0-.866-.094-1.23-.28a2.761 2.761 0 0 1-.937-.787 3.72 3.72 0 0 1-.588-1.19 5.165 5.165 0 0 1-.205-1.49Zm1.805-.144v.144c0 .319.032.617.096.895.063.278.161.524.294.738.132.21.298.374.499.493.2.118.44.177.717.177.374 0 .68-.077.916-.232.242-.16.424-.376.547-.65.128-.277.21-.59.246-.936v-1.073a3.247 3.247 0 0 0-.15-.76 1.872 1.872 0 0 0-.308-.6c-.132-.17-.3-.301-.506-.397a1.716 1.716 0 0 0-.731-.144c-.273 0-.513.062-.718.185a1.431 1.431 0 0 0-.506.499 2.55 2.55 0 0 0-.3.745 4.154 4.154 0 0 0-.096.916Zm6.139.13v-.144c0-.542.077-1.04.232-1.497.155-.46.38-.859.677-1.196.296-.337.658-.6 1.087-.786.428-.191.916-.287 1.462-.287.556 0 1.049.095 1.477.287.433.187.798.449 1.094.786.296.337.522.736.677 1.196.154.456.232.955.232 1.497v.144c0 .538-.078 1.037-.232 1.497-.155.456-.38.854-.677 1.196-.296.338-.659.6-1.087.786-.428.187-.918.28-1.47.28a3.674 3.674 0 0 1-1.47-.28 3.032 3.032 0 0 1-1.093-.786 3.548 3.548 0 0 1-.677-1.196 4.663 4.663 0 0 1-.233-1.497Zm1.804-.144v.144c0 .323.032.627.096.91.064.282.162.53.294.744.132.214.303.383.513.506.214.119.469.178.765.178.292 0 .543-.06.752-.178.21-.123.38-.292.513-.506.137-.214.237-.462.3-.745.064-.282.096-.585.096-.909v-.144c0-.319-.032-.617-.095-.895a2.324 2.324 0 0 0-.301-.745 1.436 1.436 0 0 0-1.279-.704 1.419 1.419 0 0 0-1.264.704c-.132.214-.23.462-.294.745a3.997 3.997 0 0 0-.096.895Zm10.514 1.744a.735.735 0 0 0-.123-.417c-.082-.123-.237-.235-.465-.335-.223-.105-.551-.203-.984-.294a7.26 7.26 0 0 1-1.06-.308 3.423 3.423 0 0 1-.834-.444 2.02 2.02 0 0 1-.547-.622 1.759 1.759 0 0 1-.191-.834c0-.306.066-.593.198-.862.132-.273.324-.512.574-.717.25-.21.556-.374.916-.493.36-.123.766-.184 1.217-.184.629 0 1.169.102 1.62.307.456.205.805.488 1.046.848.242.355.362.757.362 1.203h-1.804c0-.196-.046-.373-.137-.533a.939.939 0 0 0-.403-.383c-.183-.1-.413-.15-.69-.15-.251 0-.463.04-.636.123a.93.93 0 0 0-.383.321.782.782 0 0 0-.13.438c0 .118.023.225.068.32.05.092.13.176.24.254.109.077.257.148.444.212.191.064.426.125.704.184.551.11 1.032.255 1.442.438.415.178.739.415.97.71.233.297.35.675.35 1.136 0 .328-.071.628-.212.902a2.09 2.09 0 0 1-.616.704c-.269.2-.59.358-.963.472-.374.109-.796.164-1.265.164-.68 0-1.253-.121-1.723-.363-.47-.246-.825-.556-1.066-.93a2.155 2.155 0 0 1-.362-1.175h1.729c.014.287.091.517.232.69.142.174.32.299.534.376.218.073.449.11.69.11.273 0 .504-.037.69-.11a.986.986 0 0 0 .424-.307.75.75 0 0 0 .144-.451Zm6.638-5.373v1.298h-4.239V9.604h4.239Zm-3.104-1.819h1.812v7.082c0 .219.03.388.089.506.059.119.148.198.266.24a1.3 1.3 0 0 0 .424.06c.118 0 .228-.006.328-.02.1-.013.185-.027.253-.04l.007 1.353c-.15.05-.322.091-.513.123a3.804 3.804 0 0 1-.636.048c-.405 0-.76-.069-1.066-.205a1.524 1.524 0 0 1-.711-.677c-.169-.315-.253-.73-.253-1.244V7.785Zm7.629 9.352c-.56 0-1.064-.091-1.51-.274a3.318 3.318 0 0 1-1.142-.758 3.49 3.49 0 0 1-.718-1.142 3.977 3.977 0 0 1-.246-1.408v-.274c0-.57.082-1.087.246-1.552.164-.469.396-.872.697-1.21.3-.337.66-.596 1.08-.779.42-.182.882-.273 1.388-.273.524 0 .987.089 1.388.266.4.174.736.42 1.005.739.268.319.471.702.608 1.148.137.442.205.932.205 1.47v.759h-5.797v-1.245h4.02v-.136a2.18 2.18 0 0 0-.164-.786 1.256 1.256 0 0 0-.465-.575c-.21-.145-.481-.218-.814-.218-.269 0-.503.059-.704.177-.196.114-.36.278-.492.493-.128.21-.223.46-.287.752a4.552 4.552 0 0 0-.096.97v.274c0 .31.041.597.123.861.087.264.212.495.376.69.169.192.37.342.602.452.237.104.506.157.806.157.379 0 .72-.073 1.026-.219.31-.15.578-.371.806-.663l.91.943a3.019 3.019 0 0 1-.63.657c-.26.21-.574.38-.943.512-.369.128-.795.192-1.278.192Zm6.125-7.533V17h-1.811V9.604h1.811Zm-1.935-1.935c0-.269.092-.492.274-.67.187-.178.437-.267.752-.267.314 0 .563.09.745.267.187.178.28.401.28.67a.878.878 0 0 1-.28.663c-.182.178-.43.267-.745.267s-.565-.09-.752-.267a.889.889 0 0 1-.274-.663Z"/><path stroke="#000" stroke-linecap="round" stroke-linejoin="round" d="M17 2h2.67A2.31 2.31 0 0 1 22 4v7a2.31 2.31 0 0 1-2.33 2H17m-7 2v4a3 3 0 0 0 3 3l4-9V2H5.72a2 2 0 0 0-2 1.7l-1.38 9a2 2 0 0 0 2 2.3H10Z"/></svg>