<svg xmlns="http://www.w3.org/2000/svg" width="95" height="24" fill="none"><path fill="#000" d="M35.924 17h-2.147l.014-1.477h2.133c.579 0 1.064-.127 1.456-.382.392-.26.688-.632.889-1.115.2-.487.3-1.07.3-1.75v-.512a5.09 5.09 0 0 0-.17-1.388 2.777 2.777 0 0 0-.506-1.012 2.104 2.104 0 0 0-.814-.622 2.761 2.761 0 0 0-1.114-.212h-2.229V7.047h2.229c.665 0 1.271.112 1.818.335a4.061 4.061 0 0 1 1.429.964c.405.414.715.911.93 1.49.218.579.328 1.226.328 1.941v.5c0 .71-.11 1.357-.328 1.94a4.172 4.172 0 0 1-.93 1.491c-.401.415-.88.734-1.436.957a4.93 4.93 0 0 1-1.852.335ZM34.83 7.047V17h-1.88V7.047h1.88Zm6.781 6.33v-.144c0-.542.078-1.04.233-1.497.155-.46.38-.859.676-1.196.297-.337.659-.6 1.087-.786.429-.191.916-.287 1.463-.287.556 0 1.048.095 1.477.287.433.187.797.449 1.094.786.296.337.521.736.676 1.196.155.456.233.955.233 1.497v.144c0 .538-.078 1.037-.233 1.497a3.55 3.55 0 0 1-.676 1.196c-.297.338-.659.6-1.087.786-.429.187-.919.28-1.47.28a3.674 3.674 0 0 1-1.47-.28 3.03 3.03 0 0 1-1.093-.786 3.548 3.548 0 0 1-.677-1.196 4.663 4.663 0 0 1-.233-1.497Zm1.805-.144v.144c0 .323.032.627.096.91.063.282.161.53.294.744.132.214.303.383.512.506.215.119.47.178.766.178.292 0 .542-.06.752-.178.21-.123.38-.292.513-.506a2.32 2.32 0 0 0 .3-.745c.064-.282.096-.585.096-.909v-.144c0-.319-.032-.617-.096-.895a2.322 2.322 0 0 0-.3-.745 1.434 1.434 0 0 0-1.279-.704 1.418 1.418 0 0 0-1.264.704c-.133.214-.23.462-.294.745a3.997 3.997 0 0 0-.096.895Zm8.504 1.99 1.62-5.62h1.148l-.341 1.942L52.713 17h-.991l.198-1.777Zm-.896-5.62 1.217 5.633.11 1.764h-1.142l-1.941-7.396h1.756Zm5.168 5.551 1.19-5.55h1.75L57.204 17h-1.142l.13-1.846Zm-1.326-5.55 1.607 5.564.212 1.832h-.992l-1.647-5.455-.335-1.941h1.155Zm7.103 1.579V17h-1.805V9.604h1.695l.11 1.579Zm-.287 1.852h-.534a4.881 4.881 0 0 1 .22-1.463c.14-.437.339-.813.594-1.128.26-.314.567-.556.923-.724a2.74 2.74 0 0 1 1.19-.253c.355 0 .676.05.963.15.287.1.533.26.738.479.21.219.37.506.479.861.114.35.17.784.17 1.299V17h-1.818v-4.758c0-.337-.05-.604-.15-.8a.838.838 0 0 0-.424-.417 1.649 1.649 0 0 0-.677-.123c-.278 0-.521.057-.731.171-.205.11-.378.262-.52.458a2.256 2.256 0 0 0-.314.677 3 3 0 0 0-.11.827Zm8.25-6.535V17h-1.81V6.5h1.81Zm1.402 6.877v-.144c0-.542.078-1.04.232-1.497.155-.46.38-.859.677-1.196.296-.337.659-.6 1.087-.786.428-.191.916-.287 1.463-.287.556 0 1.048.095 1.476.287.433.187.798.449 1.094.786.296.337.522.736.677 1.196.155.456.232.955.232 1.497v.144c0 .538-.077 1.037-.232 1.497-.155.456-.38.854-.677 1.196-.296.338-.658.6-1.087.786-.428.187-.918.28-1.47.28a3.675 3.675 0 0 1-1.47-.28 3.031 3.031 0 0 1-1.093-.786 3.548 3.548 0 0 1-.677-1.196 4.666 4.666 0 0 1-.232-1.497Zm1.805-.144v.144c0 .323.032.627.095.91.064.282.162.53.294.744.132.214.303.383.513.506.214.119.47.178.766.178.291 0 .542-.06.752-.178.21-.123.38-.292.512-.506.137-.214.237-.462.301-.745.064-.282.096-.585.096-.909v-.144c0-.319-.032-.617-.096-.895a2.324 2.324 0 0 0-.3-.745 1.435 1.435 0 0 0-1.279-.704 1.42 1.42 0 0 0-1.265.704c-.132.214-.23.462-.294.745a3.997 3.997 0 0 0-.095.895Zm10.52 2.195v-3.411a1.5 1.5 0 0 0-.13-.65.939.939 0 0 0-.396-.424c-.178-.1-.403-.15-.677-.15-.242 0-.453.041-.636.123a.938.938 0 0 0-.41.349.901.901 0 0 0-.143.505h-1.812c0-.305.073-.594.219-.868.146-.278.353-.524.622-.738.273-.219.6-.39.977-.513a4.188 4.188 0 0 1 1.286-.184c.56 0 1.06.095 1.497.287.442.187.788.47 1.039.848.255.378.383.854.383 1.428v3.227c0 .369.022.686.068.95.05.26.123.485.219.677V17h-1.84a2.725 2.725 0 0 1-.197-.71 5.583 5.583 0 0 1-.069-.862Zm.253-2.933.014 1.073h-1.142c-.282 0-.53.03-.745.09-.214.054-.39.136-.526.245a.997.997 0 0 0-.308.383 1.162 1.162 0 0 0-.102.5c0 .181.04.346.123.491a.94.94 0 0 0 .369.349c.164.082.355.123.574.123.319 0 .597-.064.834-.191a1.64 1.64 0 0 0 .554-.479c.132-.187.202-.365.212-.533l.52.78c-.065.186-.16.384-.288.594-.128.21-.292.406-.492.588-.2.182-.442.332-.725.451a2.53 2.53 0 0 1-.984.178c-.479 0-.907-.096-1.285-.287a2.278 2.278 0 0 1-.896-.787 2.02 2.02 0 0 1-.328-1.134c0-.392.073-.739.219-1.04.146-.3.362-.553.65-.758.286-.21.642-.367 1.066-.472.428-.11.918-.164 1.47-.164h1.216Zm7.629 2.933V6.5h1.818V17h-1.64l-.178-1.572ZM86.79 13.39v-.144c0-.565.064-1.078.191-1.538.133-.465.324-.864.575-1.196.25-.333.553-.59.909-.773.36-.182.768-.273 1.224-.273.442 0 .827.089 1.155.266.332.178.615.431.847.76.237.327.427.717.568 1.168.141.447.244.939.307 1.477v.39a7.733 7.733 0 0 1-.307 1.442c-.141.437-.33.82-.568 1.148a2.47 2.47 0 0 1-.847.752c-.333.178-.723.267-1.17.267-.45 0-.856-.094-1.216-.28a2.674 2.674 0 0 1-.91-.787 3.788 3.788 0 0 1-.567-1.19 5.513 5.513 0 0 1-.191-1.49Zm1.812-.144v.144c0 .319.027.617.082.895.054.278.143.524.266.738.123.21.28.374.472.493.196.118.433.177.71.177.356 0 .648-.077.876-.232a1.58 1.58 0 0 0 .54-.65c.127-.277.21-.59.246-.936v-1.073a3.028 3.028 0 0 0-.144-.76 1.796 1.796 0 0 0-.314-.6 1.393 1.393 0 0 0-.492-.397 1.574 1.574 0 0 0-.697-.144c-.279 0-.516.062-.712.185a1.363 1.363 0 0 0-.478.499 2.528 2.528 0 0 0-.273.745 4.82 4.82 0 0 0-.082.916Z"/><path stroke="#000" stroke-linecap="round" stroke-linejoin="round" d="M21 15v4a2 2 0 0 1-2 2H5a2 2 0 0 1-2-2v-4M7 10l5 5 5-5M12 15V3"/></svg>