<svg xmlns="http://www.w3.org/2000/svg" width="63" height="24" fill="none">
  <path fill="#000" d="M39.458 15.578V17h-6.74v-1.217l3.233-3.493c.337-.383.604-.715.8-.998.196-.283.335-.538.417-.766a1.9 1.9 0 0 0-.034-1.463 1.228 1.228 0 0 0-.479-.54c-.205-.127-.458-.191-.758-.191-.333 0-.618.078-.855.232-.232.15-.41.36-.533.63a2.268 2.268 0 0 0-.178.922H32.52c0-.588.137-1.123.41-1.606a3.05 3.05 0 0 1 1.176-1.17c.51-.29 1.117-.437 1.819-.437.683 0 1.262.114 1.736.342.474.223.834.542 1.08.957.246.415.37.91.37 1.484 0 .319-.053.633-.158.943-.105.31-.253.617-.444.923-.187.3-.41.606-.67.916-.26.31-.55.626-.868.95l-1.942 2.16h4.43Zm6.638-4.457V17H44.29V9.604h1.702l.103 1.517Zm-.267 1.914h-.554c0-.515.062-.989.185-1.422.128-.433.314-.809.56-1.128.247-.323.55-.574.91-.752.364-.177.786-.266 1.264-.266.333 0 .638.05.916.15.278.096.518.249.718.458.205.205.362.474.472.807.11.328.164.722.164 1.183V17h-1.805v-4.751c0-.346-.05-.617-.15-.814a.812.812 0 0 0-.417-.41 1.592 1.592 0 0 0-.657-.123c-.282 0-.526.057-.73.171-.201.11-.368.262-.5.458a2.214 2.214 0 0 0-.287.677 3.65 3.65 0 0 0-.089.827Zm4.498-.335-.745.137c.005-.465.068-.9.191-1.306.123-.41.303-.768.54-1.073.242-.31.54-.551.896-.725.36-.177.775-.266 1.244-.266.365 0 .693.052.984.157.297.1.55.262.76.485.209.22.368.504.478.855.114.35.17.78.17 1.285V17h-1.818v-4.758c0-.36-.05-.636-.15-.827a.785.785 0 0 0-.417-.396 1.634 1.634 0 0 0-.643-.117c-.25 0-.469.048-.656.144a1.343 1.343 0 0 0-.465.383 1.775 1.775 0 0 0-.28.574 2.61 2.61 0 0 0-.089.697Zm8.053-3.096V17h-1.812V9.604h1.812Zm-1.935-1.935c0-.269.091-.492.274-.67.187-.178.437-.267.752-.267.314 0 .563.09.745.267.187.178.28.401.28.67a.878.878 0 0 1-.28.663c-.183.178-.43.267-.745.267s-.565-.09-.752-.267a.889.889 0 0 1-.274-.663ZM62.017 6.5V17h-1.812V6.5h1.812Z"/>
  <path stroke="#000" stroke-linecap="round" stroke-linejoin="round" d="M7 22H4a2 2 0 0 1-2-2v-7a2 2 0 0 1 2-2h3m7-2V5a3 3 0 0 0-3-3l-4 9v11h11.28a2 2 0 0 0 2-1.7l1.38-9a1.999 1.999 0 0 0-2-2.3H14Z"/>
</svg>
