<svg xmlns="http://www.w3.org/2000/svg" width="115" height="24" fill="none"><path fill="#000" d="M38.774 13.726h1.88a3.858 3.858 0 0 1-.553 1.77c-.32.51-.764.912-1.333 1.203-.57.292-1.26.438-2.072.438a4.18 4.18 0 0 1-1.688-.328 3.654 3.654 0 0 1-1.279-.95 4.342 4.342 0 0 1-.806-1.49c-.187-.584-.28-1.238-.28-1.963v-.758c0-.725.095-1.38.287-1.962.191-.584.465-1.08.82-1.49.36-.415.79-.734 1.292-.958a4.154 4.154 0 0 1 1.695-.335c.811 0 1.497.15 2.058.451.56.297.996.705 1.306 1.224.31.52.496 1.117.56 1.791h-1.88c-.036-.42-.127-.775-.273-1.066a1.438 1.438 0 0 0-.643-.663c-.282-.155-.658-.233-1.128-.233-.364 0-.686.069-.964.205a1.764 1.764 0 0 0-.683.616c-.182.268-.32.606-.41 1.011a6.334 6.334 0 0 0-.137 1.395v.772c0 .506.041.96.123 1.36.082.402.21.741.383 1.02.173.277.396.49.67.635.273.146.599.219.977.219.46 0 .834-.073 1.121-.22.292-.145.513-.36.663-.642.155-.282.253-.633.294-1.052Zm2.878-.349v-.144c0-.542.078-1.04.233-1.497.155-.46.38-.859.677-1.196.296-.337.658-.6 1.086-.786.429-.191.916-.287 1.463-.287.556 0 1.049.095 1.477.287.433.187.797.449 1.094.786.296.337.521.736.676 1.196.155.456.233.955.233 1.497v.144c0 .538-.078 1.037-.233 1.497-.154.456-.38.854-.676 1.196-.297.338-.659.6-1.087.786-.429.187-.919.28-1.47.28a3.674 3.674 0 0 1-1.47-.28 3.03 3.03 0 0 1-1.093-.786 3.548 3.548 0 0 1-.677-1.196 4.663 4.663 0 0 1-.233-1.497Zm1.805-.144v.144c0 .323.032.627.096.91.064.282.162.53.294.744.132.214.303.383.512.506.215.119.47.178.766.178.292 0 .542-.06.752-.178.21-.123.38-.292.513-.506a2.32 2.32 0 0 0 .3-.745c.064-.282.096-.585.096-.909v-.144c0-.319-.032-.617-.096-.895a2.322 2.322 0 0 0-.3-.745 1.434 1.434 0 0 0-1.279-.704 1.419 1.419 0 0 0-1.264.704c-.133.214-.23.462-.294.745a3.997 3.997 0 0 0-.096.895Zm8.244-2.112V17h-1.804V9.604h1.702l.102 1.517Zm-.266 1.914h-.554c0-.515.061-.989.184-1.422.128-.433.315-.809.561-1.128.246-.323.55-.574.91-.752.364-.177.785-.266 1.264-.266.333 0 .638.05.916.15.278.096.517.249.718.458.205.205.362.474.471.807.11.328.164.722.164 1.183V17h-1.804v-4.751c0-.346-.05-.617-.15-.814a.812.812 0 0 0-.418-.41 1.592 1.592 0 0 0-.656-.123c-.282 0-.526.057-.731.171-.201.11-.367.262-.5.458a2.214 2.214 0 0 0-.287.677c-.059.255-.088.53-.088.827Zm4.498-.335-.745.137c.004-.465.068-.9.19-1.306a3.26 3.26 0 0 1 .54-1.073c.242-.31.541-.551.897-.725.36-.177.774-.266 1.244-.266.364 0 .692.052.984.157.296.1.55.262.759.485.21.22.369.504.478.855.114.35.171.78.171 1.285V17h-1.818v-4.758c0-.36-.05-.636-.15-.827a.785.785 0 0 0-.418-.396 1.634 1.634 0 0 0-.642-.117c-.25 0-.47.048-.656.144a1.343 1.343 0 0 0-.465.383 1.775 1.775 0 0 0-.28.574c-.06.214-.09.447-.09.697Zm7.943-1.675v8.819h-1.811V9.604h1.674l.137 1.421Zm4.751 2.202v.143c0 .538-.064 1.037-.191 1.497a3.743 3.743 0 0 1-.547 1.197 2.597 2.597 0 0 1-.903.792c-.355.187-.765.28-1.23.28-.456 0-.852-.086-1.19-.259a2.45 2.45 0 0 1-.854-.752c-.233-.324-.42-.7-.56-1.128a8.391 8.391 0 0 1-.308-1.415v-.458c.068-.542.17-1.035.307-1.476.142-.447.328-.832.56-1.156.233-.328.516-.58.849-.759.337-.177.731-.266 1.182-.266.47 0 .882.089 1.237.266.36.178.664.433.91.766s.43.73.553 1.19c.123.46.185.973.185 1.538Zm-1.812.143v-.143c0-.329-.03-.632-.088-.91a2.437 2.437 0 0 0-.274-.738 1.361 1.361 0 0 0-.478-.499 1.35 1.35 0 0 0-.711-.178c-.278 0-.518.046-.718.137-.2.091-.365.221-.492.39-.128.168-.228.369-.301.601-.068.228-.114.481-.137.76v1.134c.041.337.121.64.24.909.118.269.291.483.519.643.232.16.533.239.902.239.278 0 .515-.062.711-.185a1.42 1.42 0 0 0 .479-.506c.123-.218.212-.469.266-.751.055-.283.082-.584.082-.903Zm7.206 2.058v-3.411a1.5 1.5 0 0 0-.13-.65.938.938 0 0 0-.397-.424c-.178-.1-.403-.15-.677-.15-.241 0-.453.041-.635.123a.938.938 0 0 0-.41.349.901.901 0 0 0-.144.505h-1.812c0-.305.073-.594.22-.868a2.32 2.32 0 0 1 .621-.738c.274-.219.6-.39.978-.513a4.188 4.188 0 0 1 1.285-.184c.56 0 1.06.095 1.497.287.442.187.788.47 1.04.848.254.378.382.854.382 1.428v3.227c0 .369.023.686.068.95.05.26.123.485.219.677V17h-1.839a2.721 2.721 0 0 1-.198-.71 5.571 5.571 0 0 1-.069-.862Zm.252-2.933.014 1.073h-1.142c-.282 0-.53.03-.745.09-.214.054-.39.136-.526.245a.998.998 0 0 0-.308.383 1.162 1.162 0 0 0-.102.5c0 .181.04.346.123.491a.94.94 0 0 0 .37.349c.163.082.355.123.573.123.32 0 .597-.064.834-.191.237-.133.422-.292.554-.479.132-.187.203-.365.212-.533l.52.78c-.064.186-.16.384-.288.594-.127.21-.291.406-.492.588-.2.182-.442.332-.725.451a2.53 2.53 0 0 1-.984.178c-.478 0-.907-.096-1.285-.287a2.277 2.277 0 0 1-.895-.787 2.019 2.019 0 0 1-.329-1.134c0-.392.073-.739.22-1.04.145-.3.361-.553.648-.758.288-.21.643-.367 1.067-.472.428-.11.918-.164 1.47-.164h1.216Zm4.998-1.38V17h-1.805V9.604h1.709l.096 1.51Zm2.248-1.56-.027 1.682a4.742 4.742 0 0 0-.69-.055c-.278 0-.522.04-.732.117-.21.073-.385.18-.526.321a1.42 1.42 0 0 0-.314.52c-.073.2-.114.428-.124.683l-.39-.048c0-.469.049-.904.144-1.305.096-.401.235-.752.417-1.053.183-.3.41-.533.684-.697.278-.169.597-.253.957-.253.1 0 .207.009.321.027.119.014.212.034.28.062Zm4.834.049v1.298h-4.239V9.604h4.239Zm-3.104-1.819h1.812v7.082c0 .219.03.388.088.506.06.119.148.198.267.24a1.3 1.3 0 0 0 .424.06c.118 0 .228-.006.328-.02.1-.013.184-.027.253-.04l.007 1.353c-.15.05-.322.091-.513.123a3.803 3.803 0 0 1-.636.048c-.405 0-.76-.069-1.066-.205a1.524 1.524 0 0 1-.711-.677c-.169-.315-.253-.73-.253-1.244V7.785Zm6.22 1.819V17h-1.81V9.604h1.81Zm-1.934-1.935c0-.269.091-.492.274-.67.186-.178.437-.267.752-.267.314 0 .562.09.745.267.187.178.28.401.28.67a.878.878 0 0 1-.28.663c-.183.178-.431.267-.745.267-.315 0-.566-.09-.752-.267a.889.889 0 0 1-.274-.663ZM93.106 6.5V17h-1.811V6.5h1.811Zm3.494 0V17h-1.812V6.5H96.6Zm-.287 6.535h-.534c0-.515.069-.989.205-1.422.137-.433.33-.809.581-1.128.251-.323.55-.574.896-.752.35-.177.738-.266 1.162-.266.365 0 .695.052.991.157.301.1.559.262.773.485.214.224.378.515.492.875.118.356.178.789.178 1.3V17h-1.819v-4.73c0-.342-.05-.611-.15-.807a.898.898 0 0 0-.43-.43 1.572 1.572 0 0 0-.677-.13c-.292 0-.543.056-.752.17-.21.11-.383.262-.52.458a2.234 2.234 0 0 0-.3.677c-.065.255-.097.53-.097.827Zm10.411 2.393v-3.411c0-.251-.044-.467-.13-.65a.94.94 0 0 0-.397-.424c-.177-.1-.403-.15-.676-.15-.242 0-.454.041-.636.123a.932.932 0 0 0-.41.349.9.9 0 0 0-.144.505h-1.811c0-.305.072-.594.218-.868.146-.278.353-.524.622-.738.274-.219.6-.39.978-.513a4.187 4.187 0 0 1 1.285-.184c.561 0 1.06.095 1.497.287.442.187.789.47 1.039.848.255.378.383.854.383 1.428v3.227c0 .369.023.686.068.95.05.26.123.485.219.677V17h-1.839a2.765 2.765 0 0 1-.198-.71 5.521 5.521 0 0 1-.068-.862Zm.253-2.933.013 1.073h-1.141c-.283 0-.531.03-.745.09-.215.054-.39.136-.527.245a.99.99 0 0 0-.307.383 1.154 1.154 0 0 0-.103.5c0 .181.041.346.123.491.087.146.21.262.369.349.164.082.356.123.574.123.319 0 .597-.064.834-.191a1.64 1.64 0 0 0 .554-.479c.132-.187.203-.365.212-.533l.52.78c-.064.186-.16.384-.288.594-.127.21-.291.406-.492.588-.2.182-.442.332-.724.451a2.533 2.533 0 0 1-.985.178c-.478 0-.907-.096-1.285-.287a2.273 2.273 0 0 1-.895-.787 2.018 2.018 0 0 1-.329-1.134c0-.392.073-.739.219-1.04.146-.3.363-.553.65-.758.287-.21.642-.367 1.066-.472.428-.11.918-.164 1.47-.164h1.217Zm4.997-1.38V17h-1.805V9.604h1.709l.096 1.51Zm2.249-1.56-.028 1.682a3.2 3.2 0 0 0-.341-.04 4.778 4.778 0 0 0-.349-.014c-.278 0-.522.038-.732.116-.209.073-.385.18-.526.321a1.416 1.416 0 0 0-.314.52c-.073.2-.114.428-.123.683l-.39-.048c0-.469.048-.904.143-1.305.096-.401.235-.752.417-1.053.183-.3.411-.533.684-.697.278-.169.597-.253.957-.253.1 0 .207.009.321.027.119.014.212.034.281.062Z"/><path stroke="#000" stroke-linecap="round" stroke-linejoin="round" d="M18 8a3 3 0 1 0 0-6 3 3 0 0 0 0 6ZM6 15a3 3 0 1 0 0-6 3 3 0 0 0 0 6ZM18 22a3 3 0 1 0 0-6 3 3 0 0 0 0 6ZM8.59 13.51l6.83 3.98M15.41 6.51l-6.82 3.98"/></svg>